PathFileType	4	(X/Y/Z)	 1.9Hzlow3min.trc
DataRate	CameraRate	NumFrames	NumMarkers	Units	OrigDataRate	OrigDataStartFrame	OrigNumFrames
200	200	9	35	m	200	1	1000
Frame#	Time	C7			LSH			RSH			MAN			RASI			LASI			HIPR			HIPL			RPSI			LPSI			COX			RTHI1			RTHI2			RTHI3			RTHI4			RSHA1			RSHA2			RSHA3			RSHA4			RHEEL			RMET5			RMET1			RTOE			LTHI1			LTHI2			LTHI3			LTHI4			LSHA1			LSHA2			LSHA3			LSHA4			LHEEL			LMET5			LMET1			LTOE			
		X1	Y1	Z1	X2	Y2	Z2	X3	Y3	Z3	X4	Y4	Z4	X5	Y5	Z5	X6	Y6	Z6	X7	Y7	Z7	X8	Y8	Z8	X9	Y9	Z9	X10	Y10	Z10	X11	Y11	Z11	X12	Y12	Z12	X13	Y13	Z13	X14	Y14	Z14	X15	Y15	Z15	X16	Y16	Z16	X17	Y17	Z17	X18	Y18	Z18	X19	Y19	Z19	X20	Y20	Z20	X21	Y21	Z21	X22	Y22	Z22	X23	Y23	Z23	X24	Y24	Z24	X25	Y25	Z25	X26	Y26	Z26	X27	Y27	Z27	X28	Y28	Z28	X29	Y29	Z29	X30	Y30	Z30	X31	Y31	Z31	X32	Y32	Z32	X33	Y33	Z33	X34	Y34	Z34	X35	Y35	Z35	
1	0.0050	-0.306741	1.345267	-0.552026	-0.239258	1.307509	-0.726831	-0.240468	1.326543	-0.378227	-0.187467	1.298285	-0.553254	-0.167476	0.914755	-0.468915	-0.169405	0.920230	-0.646103	-0.231248	0.964227	-0.418061	-0.220802	0.974772	-0.678902	-0.315854	0.948395	-0.483852	-0.313667	0.956852	-0.600447	-0.320119	0.959506	-0.541894	-0.242232	0.735284	-0.377201	-0.232284	0.674156	-0.374269	-0.162409	0.692131	-0.389931	-0.180471	0.749910	-0.391202	-0.268520	0.321930	-0.352106	-0.293426	0.286823	-0.355785	-0.238733	0.259028	-0.366858	-0.219771	0.294746	-0.365838	-0.407622	0.099558	-0.416012	-0.268272	0.031518	-0.341627	-0.232850	0.034368	-0.416319	-0.209986	0.026795	-0.407116	-0.261846	0.693065	-0.717685	-0.248701	0.635379	-0.715284	-0.179081	0.652239	-0.726357	-0.199932	0.709513	-0.729684	-0.295014	0.300169	-0.707789	-0.315135	0.265701	-0.699749	-0.258100	0.239202	-0.704083	-0.244981	0.280335	-0.712461	-0.398596	0.106229	-0.636404	-0.268150	0.029132	-0.714411	-0.224584	0.036516	-0.649878	-0.204321	0.027213	-0.661289	
2	0.0100	-0.306745	1.351477	-0.551983	-0.239452	1.314427	-0.726585	-0.240437	1.333020	-0.378263	-0.187545	1.305341	-0.553201	-0.167084	0.921306	-0.469029	-0.168861	0.926610	-0.646014	-0.231164	0.970819	-0.418288	-0.220318	0.981345	-0.679083	-0.315212	0.954659	-0.484326	-0.312857	0.963000	-0.600850	-0.319478	0.965757	-0.542365	-0.242396	0.742169	-0.377219	-0.232931	0.681016	-0.374070	-0.162883	0.698428	-0.389620	-0.180489	0.756289	-0.391129	-0.269772	0.326798	-0.351337	-0.293888	0.291305	-0.355269	-0.239133	0.264324	-0.365865	-0.220648	0.300342	-0.364888	-0.405616	0.103464	-0.415562	-0.267698	0.031894	-0.341778	-0.232416	0.034741	-0.415804	-0.209911	0.026932	-0.406835	-0.262613	0.699588	-0.717618	-0.249847	0.641843	-0.715422	-0.180168	0.658098	-0.726865	-0.200631	0.715646	-0.729960	-0.295977	0.304330	-0.708626	-0.315573	0.269646	-0.700533	-0.258261	0.243860	-0.705391	-0.245720	0.285222	-0.713700	-0.396656	0.109898	-0.637565	-0.267549	0.029502	-0.714393	-0.224267	0.036708	-0.650414	-0.204296	0.027231	-0.661533	
3	0.0150	-0.306662	1.357549	-0.551921	-0.239648	1.321242	-0.726340	-0.240333	1.339342	-0.378437	-0.187666	1.312175	-0.553174	-0.166709	0.927801	-0.469190	-0.168365	0.932879	-0.645936	-0.231056	0.977315	-0.418539	-0.219888	0.987769	-0.679238	-0.314579	0.960842	-0.484794	-0.312050	0.969053	-0.601305	-0.318855	0.971978	-0.542861	-0.242540	0.748942	-0.377221	-0.233531	0.687753	-0.373853	-0.163360	0.704648	-0.389279	-0.180510	0.762596	-0.391045	-0.270915	0.331583	-0.350760	-0.294421	0.295731	-0.354657	-0.239504	0.269576	-0.364803	-0.221492	0.305838	-0.363925	-0.403439	0.107396	-0.414948	-0.267084	0.032323	-0.341922	-0.231983	0.035163	-0.415217	-0.209824	0.027077	-0.406480	-0.263323	0.706064	-0.717602	-0.250921	0.648188	-0.715565	-0.181169	0.663905	-0.727333	-0.201253	0.721652	-0.730173	-0.296901	0.308382	-0.709377	-0.315981	0.273524	-0.701301	-0.258398	0.248495	-0.706724	-0.246452	0.290054	-0.714966	-0.394608	0.113501	-0.638795	-0.266940	0.029869	-0.714386	-0.223922	0.036934	-0.650935	-0.204280	0.027257	-0.661815	
4	0.0200	-0.306578	1.363585	-0.551861	-0.239830	1.328000	-0.726102	-0.240215	1.345627	-0.378617	-0.187800	1.318925	-0.553160	-0.166337	0.934236	-0.469365	-0.167878	0.939090	-0.645861	-0.230928	0.983776	-0.418804	-0.219463	0.994141	-0.679392	-0.313944	0.966993	-0.485261	-0.311258	0.975066	-0.601753	-0.318238	0.978152	-0.543354	-0.242687	0.755679	-0.377228	-0.234136	0.694452	-0.373630	-0.163835	0.710823	-0.388937	-0.180530	0.768853	-0.390961	-0.272038	0.336305	-0.350248	-0.294963	0.300099	-0.354047	-0.239867	0.274800	-0.363735	-0.222331	0.311304	-0.362958	-0.401221	0.111317	-0.414327	-0.266453	0.032768	-0.342055	-0.231532	0.035598	-0.414633	-0.209720	0.027214	-0.406128	-0.264013	0.712505	-0.717594	-0.251973	0.654510	-0.715724	-0.182154	0.669696	-0.727801	-0.201864	0.727639	-0.730384	-0.297828	0.312426	-0.710124	-0.316388	0.277372	-0.702062	-0.258543	0.253111	-0.708062	-0.247189	0.294859	-0.716224	-0.392544	0.117088	-0.640036	-0.266323	0.030248	-0.714383	-0.223561	0.037175	-0.651454	-0.204260	0.027286	-0.662109	
5	0.0250	-0.306460	1.369506	-0.551797	-0.239990	1.334625	-0.725872	-0.240052	1.351780	-0.378864	-0.187960	1.325467	-0.553173	-0.165977	0.940567	-0.469581	-0.167425	0.945172	-0.645800	-0.230760	0.990142	-0.419100	-0.219067	1.000365	-0.679533	-0.313312	0.973062	-0.485724	-0.310485	0.980971	-0.602187	-0.317636	0.984233	-0.543842	-0.242829	0.762304	-0.377239	-0.234727	0.701035	-0.373399	-0.164313	0.716894	-0.388580	-0.180555	0.775004	-0.390874	-0.273177	0.340998	-0.349702	-0.295548	0.304372	-0.353403	-0.240204	0.279963	-0.362641	-0.223155	0.316677	-0.361977	-0.398883	0.115223	-0.413610	-0.265776	0.033267	-0.342170	-0.231046	0.036077	-0.414025	-0.209581	0.027347	-0.405752	-0.264649	0.718867	-0.717612	-0.252964	0.660734	-0.715898	-0.183075	0.675440	-0.728250	-0.202422	0.733532	-0.730565	-0.298741	0.316402	-0.710823	-0.316779	0.281151	-0.702806	-0.258686	0.257682	-0.709417	-0.247929	0.299601	-0.717481	-0.390405	0.120605	-0.641315	-0.265685	0.030649	-0.714396	-0.223162	0.037451	-0.651964	-0.204233	0.027326	-0.662434	
6	0.0300	-0.306343	1.375321	-0.551740	-0.240126	1.341081	-0.725663	-0.239873	1.357813	-0.379145	-0.188128	1.331810	-0.553212	-0.165629	0.946740	-0.469841	-0.167000	0.951103	-0.645757	-0.230517	0.996421	-0.419438	-0.218682	1.006429	-0.679668	-0.312679	0.979038	-0.486182	-0.309755	0.986744	-0.602605	-0.317059	0.990174	-0.544291	-0.242974	0.768793	-0.377260	-0.235323	0.707477	-0.373150	-0.164786	0.722813	-0.388222	-0.180582	0.781002	-0.390770	-0.274382	0.345607	-0.349042	-0.296156	0.308501	-0.352775	-0.240515	0.285023	-0.361531	-0.223968	0.321943	-0.360955	-0.396435	0.119064	-0.412842	-0.265047	0.033821	-0.342252	-0.230493	0.036605	-0.413426	-0.209384	0.027443	-0.405368	-0.265238	0.725129	-0.717661	-0.253902	0.666872	-0.716105	-0.183957	0.681136	-0.728705	-0.202949	0.739362	-0.730757	-0.299657	0.320335	-0.711503	-0.317172	0.284848	-0.703539	-0.258848	0.262191	-0.710782	-0.248689	0.304263	-0.718710	-0.388211	0.124048	-0.642600	-0.265019	0.031090	-0.714420	-0.222716	0.037776	-0.652472	-0.204191	0.027389	-0.662788	
7	0.0350	-0.306226	1.380982	-0.551691	-0.240238	1.347347	-0.725467	-0.239696	1.363672	-0.379478	-0.188293	1.337939	-0.553273	-0.165292	0.952716	-0.470147	-0.166600	0.956838	-0.645730	-0.230210	1.002563	-0.419808	-0.218303	1.012298	-0.679804	-0.312051	0.984886	-0.486623	-0.309063	0.992370	-0.602994	-0.316500	0.995956	-0.544720	-0.243131	0.775115	-0.377295	-0.235929	0.713755	-0.372912	-0.165266	0.728561	-0.387861	-0.180622	0.786819	-0.390662	-0.275647	0.350116	-0.348300	-0.296778	0.312504	-0.352159	-0.240805	0.289974	-0.360425	-0.224770	0.327096	-0.359931	-0.393886	0.122845	-0.412015	-0.264248	0.034455	-0.342296	-0.229855	0.037194	-0.412836	-0.209101	0.027556	-0.404983	-0.265768	0.731251	-0.717719	-0.254782	0.672884	-0.716338	-0.184784	0.686733	-0.729149	-0.203432	0.745070	-0.730952	-0.300568	0.324187	-0.712139	-0.317556	0.288449	-0.704251	-0.259020	0.266610	-0.712147	-0.249456	0.308821	-0.719902	-0.385958	0.127428	-0.643927	-0.264314	0.031587	-0.714466	-0.222227	0.038150	-0.652976	-0.204128	0.027473	-0.663173	
8	0.0400	-0.306117	1.386466	-0.551654	-0.240330	1.353411	-0.725281	-0.239541	1.369347	-0.379839	-0.188441	1.343815	-0.553356	-0.164967	0.958478	-0.470500	-0.166230	0.962372	-0.645731	-0.229827	1.008537	-0.420200	-0.217922	1.017958	-0.679945	-0.311426	0.990583	-0.487048	-0.308408	0.997821	-0.603341	-0.315957	1.001547	-0.545117	-0.243303	0.781241	-0.377344	-0.236554	0.719841	-0.372689	-0.165759	0.734111	-0.387500	-0.180679	0.792428	-0.390553	-0.276997	0.354516	-0.347421	-0.297411	0.316363	-0.351631	-0.241076	0.294786	-0.359339	-0.225562	0.332106	-0.358906	-0.391266	0.126536	-0.411131	-0.263374	0.035178	-0.342290	-0.229112	0.037853	-0.412273	-0.208724	0.027673	-0.404595	-0.266243	0.737201	-0.717779	-0.255610	0.678742	-0.716583	-0.185563	0.692193	-0.729579	-0.203872	0.750634	-0.731160	-0.301467	0.327943	-0.712733	-0.317925	0.291926	-0.704940	-0.259203	0.270913	-0.713493	-0.250224	0.313249	-0.721043	-0.383651	0.130744	-0.645281	-0.263559	0.032147	-0.714540	-0.221706	0.038578	-0.653496	-0.204032	0.027590	-0.663596	
9	0.0450	-0.306022	1.391761	-0.551632	-0.240406	1.359251	-0.725105	-0.239417	1.374815	-0.380221	-0.188549	1.349469	-0.553450	-0.164653	0.964004	-0.470895	-0.165883	0.967686	-0.645764	-0.229369	1.014328	-0.420609	-0.217535	1.023394	-0.680093	-0.310808	0.996107	-0.487447	-0.307788	1.003077	-0.603637	-0.315434	1.006932	-0.545464	-0.243493	0.787136	-0.377402	-0.237191	0.725696	-0.372496	-0.166261	0.739438	-0.387146	-0.180753	0.797808	-0.390437	-0.278446	0.358823	-0.346343	-0.298032	0.320121	-0.351161	-0.241327	0.299443	-0.358284	-0.226346	0.336966	-0.357890	-0.388614	0.130128	-0.410198	-0.262420	0.036005	-0.342229	-0.228259	0.038595	-0.411734	-0.208238	0.027811	-0.404196	-0.266672	0.742952	-0.717832	-0.256395	0.684418	-0.716820	-0.186304	0.697487	-0.730001	-0.204273	0.756021	-0.731384	-0.302343	0.331561	-0.713279	-0.318273	0.295275	-0.705601	-0.259383	0.275078	-0.714813	-0.250984	0.317536	-0.722124	-0.381308	0.133979	-0.646640	-0.262767	0.032761	-0.714634	-0.221142	0.039093	-0.654060	-0.203897	0.027749	-0.664060	
